<svg xmlns="http://www.w3.org/2000/svg" fill="none" viewBox="0 0 128 128">
    <!-- Tree trunk -->
    <rect x="58" y="80" width="12" height="35" rx="2" />
    
    <!-- Main tree canopy -->
    <ellipse cx="64" cy="50" rx="35" ry="25" />
    
    <!-- Secondary canopy layers for depth -->
    <ellipse cx="55" cy="45" rx="25" ry="18" opacity="0.8" />
    <ellipse cx="73" cy="55" rx="28" ry="20" opacity="0.7" />
    
    <!-- Stylized leaves -->
    <path d="M40 35 Q50 25 55 35 Q50 45 40 35 Z" />
    <path d="M75 30 Q85 20 90 30 Q85 40 75 30 Z" />
    <path d="M45 65 Q55 55 60 65 Q55 75 45 65 Z" />
    <path d="M70 70 Q80 60 85 70 Q80 80 70 70 Z" />
    
    <!-- Root system hint -->
    <ellipse cx="64" cy="118" rx="20" ry="6" opacity="0.3" />
    
    <style>
        ellipse, rect, path { fill: #2d5a2d; }
        @media (prefers-color-scheme: dark) {
            ellipse, rect, path { fill: #4a7c59; }
        }
    </style>
</svg>
